<?xml version="1.0" encoding="iso-8859-1"?>
<!-- Uploaded to: SVG Repo, www.svgrepo.com, Generator: SVG Repo Mixer Tools -->
<svg fill="#fff" height="800px" width="800px" version="1.1" id="Layer_1" xmlns="http://www.w3.org/2000/svg" xmlns:xlink="http://www.w3.org/1999/xlink" 
	 viewBox="0 0 512 512" xml:space="preserve">
<g>
	<g>
		<polygon points="244.866,200.348 244.867,200.348 244.867,166.957 278.258,166.957 278.258,133.565 478.605,133.565 
			478.605,66.783 445.215,66.783 445.215,33.391 389.562,33.391 389.562,0 189.214,0 189.214,33.391 133.563,33.391 133.562,33.391 
			133.562,66.783 100.171,66.783 100.171,100.174 66.779,100.174 66.779,155.826 33.395,155.826 33.395,356.174 66.779,356.174 
			66.779,411.826 100.171,411.826 100.171,445.217 133.562,445.217 133.562,478.609 189.214,478.609 189.214,512 389.562,512 
			389.564,478.609 445.216,478.609 445.216,445.217 478.602,445.217 478.605,378.435 278.258,378.435 278.258,345.043 
			244.866,345.043 244.866,311.652 211.48,311.652 211.48,200.348 		"/>
	</g>
</g>
</svg>